<?xml version="1.0" encoding="utf-8" ?><svg xmlns="http://www.w3.org/2000/svg" xmlns:xlink="http://www.w3.org/1999/xlink" width="1024" height="1024" viewBox="0 0 1024 1024"><path fill="#FFFFFF" d="M508.078 51.9599C761.781 49.8618 969.229 253.671 971.621 507.371C974.014 761.071 770.445 968.756 516.748 971.442C262.635 974.133 54.5348 770.157 52.1387 516.041C49.7427 261.925 253.959 54.0614 508.078 51.9599ZM527.745 957.779C773.969 949.046 966.585 742.522 958.158 496.287C949.731 250.052 743.446 57.1797 497.201 65.3008C250.523 73.4362 57.2367 280.163 65.6786 526.831C74.1205 773.499 281.087 966.528 527.745 957.779Z"/><path fill="#FFFFFF" d="M501.228 287.107C613.561 285.302 706.087 374.905 707.89 487.238C709.692 599.571 620.088 692.095 507.755 693.895C395.425 695.695 302.903 606.094 301.101 493.764C299.299 381.434 388.898 288.911 501.228 287.107ZM494.632 549.563C498.397 551.159 504.802 551.667 505.999 553.049C505.715 553.584 504.664 555.461 504.548 555.916L504.215 556.823C502.254 556.368 499.937 555.022 498.134 555.323L498.592 556.295L498.38 556.998C494.228 553.519 492.111 551.834 487.522 548.872C482.516 546.244 475.717 544.791 470.287 542.708C462.71 540.178 455.958 535.965 448.87 532.534C440.988 528.721 434.719 520.433 427.819 516.532C429.237 530.94 437.506 554.452 444.981 566.481C446.135 568.02 446.066 568.556 447.465 568.818C459.517 564.555 465.32 563.41 477.533 568.626C493.255 575.339 499.311 595.878 492.023 610.646C487.865 619.085 480.464 625.479 471.511 628.367C436.229 639.573 411.191 596.02 445.382 569.721C445.193 568.225 444.968 568.056 444.222 566.763C432.069 550.46 429.536 535.241 426.234 516.129C425.576 512.647 413.72 500.362 410.386 495.255C383.951 454.757 380.694 402.467 404.329 359.825C415.397 340.087 431.209 323.419 450.337 311.328C455.482 308.107 463.463 304.436 467.702 301.476C461.556 302.079 454.387 303.85 448.439 305.673C358.718 333.181 298.992 423.477 309.907 517.069C322.199 622.459 418.445 694.306 522.472 684.142C574.272 678.628 621.755 652.749 654.462 612.205C688.034 571.244 703.708 518.495 697.951 465.848C692.884 415.7 668.12 369.614 629.098 337.711C597.802 312.455 553.083 293.925 512.324 298.438C479.958 302.021 445.719 318.822 425.122 344.463C389.666 388.603 383.263 453.5 431.253 491.803C450.765 507.642 475.837 514.948 500.803 512.072C524.89 509.269 543.977 498.307 558.971 479.502C582.095 450.502 581.307 406.94 551.116 383.232C518.354 357.504 465.806 378.445 468.464 422.242C468.831 428.272 477.675 445.115 483.405 445.526C486.624 440.285 487.998 437.421 492.961 433.534C503.447 425.324 519.064 424.259 530.343 431.545C537.784 436.378 542.958 444.01 544.69 452.712C546.426 461.063 544.339 469.373 539.643 476.367C534.82 483.457 527.347 488.31 518.908 489.832C493.161 494.638 475.202 471.225 483.094 447.179C473.785 441.575 467.43 435.454 464.866 424.571C458.248 396.488 479.047 372.416 505.375 366.09C521.25 362.393 537.944 365.192 551.746 373.864C586.267 395.087 592.117 445.355 571.008 477.597C557.143 498.775 535.831 513.497 511.277 518.952C488.505 523.918 464.714 520.792 443.999 510.112C438.157 507.095 429.357 501.231 424.261 498.908C443.434 521.702 467.616 537.921 498.025 540.538C529.409 543.238 556.204 535.018 580.357 514.821C596.119 501.641 604.818 487.622 612.764 468.982C615.297 469.417 618.198 469.843 620.672 470.417C613.762 496.13 589.786 521.599 566.998 534.487C546.581 546.033 529.583 549.585 506.484 549.453C503.712 549.268 496.381 548.196 494.632 549.563Z"/><path fill="#FFFFFF" d="M444.981 566.481C446.135 568.02 446.066 568.556 447.465 568.818C459.517 564.555 465.32 563.41 477.533 568.626C493.255 575.339 499.311 595.878 492.023 610.646C487.865 619.085 480.464 625.479 471.511 628.367C436.229 639.573 411.191 596.02 445.382 569.721C445.193 568.225 444.968 568.056 444.222 566.763L444.981 566.481Z"/><path fill="#FFFFFF" d="M498.592 556.295L498.134 555.323C499.937 555.022 502.254 556.368 504.215 556.823L504.548 555.916C519.532 560.815 532.779 562.635 547.886 566.295C585.001 575.287 604.124 602.152 630.909 625.858C570.376 617.569 537.629 604.954 498.38 556.998L498.592 556.295ZM601.063 611.183L600.95 610.284C591.194 603.9 524.908 564.621 517.966 564.33L517.397 565.978C520.433 569.656 594.77 609.359 601.063 611.183ZM607.899 613.75C605.959 612.65 604.331 611.423 602.177 611.336L602.221 612.013C604.082 613.573 605.327 613.98 607.508 614.946L607.899 613.75Z"/><path fill="#FDFDFD" d="M498.592 556.295L498.134 555.323C499.937 555.022 502.254 556.368 504.215 556.823C506.69 557.845 510.067 558.735 511.493 560.54L511.347 559.806L512.047 560.358C511.085 560.871 511.332 560.743 510.519 561.511L510.574 562.237L512.163 563.292C510.955 563.504 500.73 557.451 498.592 556.295Z"/><path fill="#FDFDFD" d="M607.899 613.75C612.883 616.193 618.565 618.82 623.382 621.474C617.896 620.397 612.513 617.467 607.508 614.946L607.899 613.75Z"/><path fill="#FDFDFD" fill-opacity="0.83529413" d="M607.508 614.946C605.327 613.98 604.082 613.573 602.221 612.013L602.177 611.336C604.331 611.423 605.959 612.65 607.899 613.75L607.508 614.946Z"/><path fill="#FFFFFF" d="M426.234 516.129L427.819 516.532C429.237 530.94 437.506 554.452 444.981 566.481L444.222 566.763C432.069 550.46 429.536 535.241 426.234 516.129Z"/><path fill="#CCCCCC" d="M487.522 548.872L488.339 547.802C490.574 547.516 493.01 547.852 494.632 549.563C498.397 551.159 504.802 551.667 505.999 553.049C505.715 553.584 504.664 555.461 504.548 555.916L504.215 556.823C502.254 556.368 499.937 555.022 498.134 555.323L498.592 556.295L498.38 556.998C494.228 553.519 492.111 551.834 487.522 548.872Z"/><path fill="#FDFDFD" fill-opacity="0.047058824" d="M494.632 549.563C496.381 548.196 503.712 549.268 506.484 549.453C506.987 551.096 506.954 550.977 506.601 552.67L505.999 553.049C504.802 551.667 498.397 551.159 494.632 549.563Z"/><path fill="#FFFFFF" d="M287.851 200.196C291.656 199.17 295.268 197.82 298.966 196.445C331.279 184.436 365.124 176.872 399.159 171.73C404.55 170.916 415.339 170.424 419.867 167.883C431.762 161.209 444.081 153.764 454.363 144.771C459.378 140.326 463.747 134.931 468.39 130.321C490.289 108.756 518.263 94.4107 548.555 89.2128C563.032 86.7571 578.8 85.9224 593.814 83.5976C574.629 89.7061 562.076 102.512 546.969 114.946C522.699 134.92 494.218 150.485 462.149 151.3C458.349 151.397 452.989 152.051 449.445 151.727C451.143 151.311 452.824 150.83 454.485 150.286C458.344 148.999 462.451 147.424 466.086 145.601C474.722 141.225 483.287 136.71 491.777 132.058C497.051 129.125 543.017 102.507 543.876 100.771C538.168 100.731 454.341 146.554 449.445 151.727C446.051 153.152 428.811 164.393 426.151 166.768L426.022 167.731C427.825 169.011 442.663 167.678 445.715 167.524C464.56 166.573 484.107 166.631 502.891 168.681C510.479 169.493 518.05 170.453 525.599 171.563C536.154 173.159 543.378 175.826 553.953 173.988C571.74 170.897 579.618 163.683 593.758 154.494C620.652 137.017 654.466 130.615 686.161 133.036C697.221 133.881 707.382 135.955 718.205 137.237C696.175 142.329 677.305 155.621 656.645 164.178C630.705 174.923 602.509 175.917 575.22 170.139C596.78 168.094 622.99 158.882 644.281 152.905C654.023 150.169 670.467 145.676 679.895 142.201C666.949 142.893 565.147 168.911 559.441 174.598L559.994 174.756L559.706 175.321L559.3 175.372L556.887 178.33C567.356 182.174 578.75 184.769 589.294 188.417C603.922 193.479 618.272 199.18 632.14 206.065C638.607 209.275 645.526 214.019 652.625 215.362C670.044 217.444 685.009 207.668 700.666 202.144C730.746 191.531 762.206 192.089 792.339 201.965C798.363 203.939 806.786 207.312 812.884 208.355C797.601 211.933 785.525 217.136 770.674 221.541C742.966 229.761 714.498 227.937 686.73 221.267C683.574 220.508 675.573 218.641 672.763 217.562L670.743 216.703C666.065 217.401 661.325 216.862 656.621 217.213C655.864 219.788 663.212 223.568 665.268 224.894C684.916 237.559 703.159 252.044 720.515 267.682C722.556 269.521 726.29 273.162 728.844 273.738L727.914 274.345C728.436 275.74 729.644 276.442 731.07 277.153C750.11 295.968 766.396 317.174 781.169 339.433C784.431 344.348 792.19 359.311 796.82 361.404C796.597 361.52 795.401 362.122 795.248 362.258C808.058 387.707 816.586 413.286 824.833 440.413C824.198 438.323 837.878 459.733 838.483 460.785C856.955 492.77 864.296 529.98 859.355 566.585C857.06 583.61 852.4 597.111 850.083 615.23C845.888 591.624 837.825 573.408 829.895 551.181C817.728 517.078 813.349 480.655 821.885 445.19C823.491 438.516 817.963 424.334 816.095 417.527C804.802 381.252 788.371 349.753 764.714 320.038L764.098 320.071L763.593 322.648C760.343 310.991 749.249 300.472 741.123 291.67C721.978 270.932 700.44 252.11 676.788 236.677C675.817 236.043 674.897 235.283 673.827 235.558L672.629 236.819C672.143 235.194 671.757 233.793 670.233 232.821C637.073 211.666 601.446 194.24 563.443 183.738C561.108 183.093 553.27 181.093 551.312 181.33L550.577 182.57L548.51 180.761L547.917 180.95L547.816 182.949C531.716 170.268 445.386 171.179 422.269 173.93C421.006 174.074 419.749 174.272 418.504 174.525C421.751 176.187 433.504 183.436 435.8 183.935C446.98 186.365 457.466 186.201 468.897 190.072C509.855 203.942 526.389 241.235 550.595 272.88C527.636 256.181 497.61 248.201 474.934 230.174C462.736 220.478 452.781 210.941 442.946 198.802C438.244 192.999 434.494 185.532 427.85 181.901C414.321 174.672 409.142 175.231 394.761 177.483C364.066 182.551 333.899 190.414 304.636 200.972C301.553 202.053 291.855 205.312 289.735 207.218C290.265 207.664 290.003 207.621 290.428 207.613C299.946 209.481 302.715 212.147 312.138 210.86C309.837 212.674 308.201 211.652 305.108 212.432L305.722 213.948L305.3 214.694C303.133 213.295 302.708 213.168 300.189 212.68L295.618 211.769C291.698 210.932 287.791 210.039 283.897 209.088C262.86 218.667 265.1 216.377 253.777 236.978C238.733 264.12 225.636 292.297 214.586 321.295C210.607 332.062 206.931 342.939 203.564 353.913C202.695 356.368 203.463 356.963 202.296 359.599C189.67 390.988 188.396 436.374 188.04 469.926C187.965 476.989 188.167 492.186 191.475 497.898L190.066 498.559C194.91 534.747 201.888 567.862 217.472 601.162C220.956 608.607 223.912 617.101 230.026 622.667L228.814 622.901L228.827 623.689C229.699 625.22 231.381 628.392 232.325 629.707C239.604 642.675 255.476 665.713 264.572 676.78C277.73 692.786 312.674 728.743 331.261 736.269L329.442 737.085C329.908 739.097 334.621 741.348 335.943 741.138C341.457 746.136 351.091 751.809 357.64 755.5C392.636 775.22 432.232 787.073 471.473 794.821C474.701 795.459 488.596 798.77 490.954 798.198C491.75 797.889 493.054 797.555 493.913 797.303L494.126 798.381C497.424 800.728 525.062 803.033 531.526 803.28C575.097 804.946 623.192 796.423 662.066 776.133C666.617 773.305 673.562 769.99 677.276 766.291C692.265 751.366 704.115 734.678 719.913 720.255C742.852 699.314 766.842 688.787 797.712 685.928C806.026 685.158 814.133 683.941 822.52 684.356C805.206 693.722 790.943 707.182 776.865 720.735C762.22 734.834 744.37 746.19 725.959 754.717C718.161 758.329 710.155 760.902 702.07 763.732C694.162 766.501 687.128 769.647 678.773 771.317C683.088 767.503 702.26 756.648 703.238 753.178C702.943 753.133 702.649 753.088 702.355 753.043C695.985 757.835 683.816 765.999 677.867 770.098C669.237 774.928 663.035 778.358 653.864 782.182C649.128 784.157 636.784 788.415 633.114 790.707C633.348 792.145 633.367 792.273 634.794 793.525L634.361 793.449C642.168 797.773 662.567 792.217 671.356 790.788C693.489 787.188 717.174 785.657 739.026 791.996C765.181 799.584 788.11 815.764 816.33 817.021C802.22 820.204 788.444 823.426 773.834 825.32C729.497 831.067 684.595 820.561 645.068 800.431C638.611 797.143 633.845 794.97 626.977 792.775C595.1 802.278 571.907 806.649 538.261 807.423C531.328 807.582 524.403 806.943 517.659 807.01C532.688 821.756 529.32 816.969 547.73 818.27C574.364 820.152 603.16 838.215 622.189 856.125C637.755 870.994 650.794 892.409 670.168 903.182C622.341 891.325 582.815 877.295 547.297 841.514C536.394 830.53 527.318 816.834 515.845 806.67C475.258 803.188 427.741 792.061 390.122 776.838C395.441 786.216 395.099 787.717 402.433 796.905C403.841 798.968 405.43 800.629 407.095 802.485C407.296 802.424 407.496 802.363 407.697 802.301C411.132 807.196 415.396 811.736 419.135 816.427C440.785 843.585 461.172 871.792 483.094 898.728L483.309 898.431C481.773 895.047 480.826 894.19 478.787 891.335C462.352 868.319 448.133 844.121 429.765 822.498C422.75 814.24 418.079 806.884 409.616 799.506C408.874 798.5 405.063 795.691 403.46 794.03C408.955 795.331 427.625 805.448 432.352 808.9C454.014 824.721 471.558 848.167 482.103 872.771C488.341 887.323 492.567 903.018 499.729 917.219C500.373 918.493 504.438 923.76 505.603 925.36L505.433 925.924C503.732 925.28 485.934 911.75 483.488 909.891C451.523 885.599 423.057 854.153 408.507 816.248C406.9 812.06 404.791 806.547 403.024 802.265C396.64 793.64 393.055 784.691 387.992 775.645C359.656 765.723 336.904 750.417 313.205 732.218C303.634 724.869 294.493 715.937 284.992 708.591C284.668 707.528 284.738 707.858 283.924 706.935C282.39 707.556 283.088 707.059 282.136 708.958L281.982 708.497C281.893 708.242 281.799 707.988 281.712 707.732C279.169 700.236 265.053 687.35 259.282 680.368C253.064 672.929 247.201 665.202 241.711 657.211C234.444 646.681 227.855 634.981 221.299 623.93C218.386 619.02 215.832 611.061 212.503 605.991C210.753 603.325 210.933 603.779 208.113 603.159C208.48 601.774 208.579 601.916 209.827 601.216C209.464 598.798 208.467 595.774 206.206 594.751C206.166 591.393 204.282 587.27 203.073 584.1C194.385 561.329 187.744 536.669 183.983 512.594C183.139 507.844 185.529 506.601 180.728 504.45C182.481 497.378 180.659 486.275 180.305 478.286C179.982 469.545 179.868 460.797 179.966 452.051C180.322 434.615 182.281 419.968 183.785 402.86L183.253 403.455C179.134 408.012 176.722 415.303 172.791 419.692C164.798 428.617 158.953 439.512 152.448 449.473C146.482 458.607 115.327 501.395 116.699 509.136L116.883 509.111C123.137 504.555 156.524 449.616 162.384 439.967C163.821 437.601 167.022 430.648 168.321 427.643C163.118 473.441 149.244 498.119 117.231 531.019C104.42 544.185 96.7141 550.542 88.2293 567.367C92.5822 525.809 105.394 478.335 137.29 449.168C146.124 441.09 160.094 431.839 168.045 423.481C174.116 417.1 179.991 401.41 185.145 393.628C186.896 390.985 189.255 376.926 190.151 372.769C191.908 364.84 193.831 356.949 195.917 349.101C205.952 311.176 221.328 274.201 239.75 239.527C242.081 235.139 244.804 230.761 247.625 226.68C227.873 236.639 205.068 243.841 184.148 251.152C180.493 252.429 176.593 253.571 172.843 254.528C171.494 253.212 169.712 250.952 168.453 249.452C175.853 246.247 184.736 243.2 192.356 240.182L235.371 222.691C246.02 218.342 257.699 213.871 267.924 208.763C270.511 207.471 276.75 202.971 279.371 201.147L279.443 203.547C281.532 201.811 284.684 198.743 287.235 198.406L287.851 200.196ZM685.875 216.225C692.213 218.216 760.716 209.972 772.757 209.477L780.157 208.888C781.412 208.959 783.17 208.732 784.47 208.62L784.035 207.467C780.781 207.489 775.815 207.381 772.78 207.908C759.953 207.977 747.13 208.413 734.328 209.214C728.401 209.639 684.216 213.45 681.515 214.824C682.884 215.267 684.516 215.841 685.875 216.225ZM718.95 742.808C721.211 741.428 726.322 738.129 728.084 736.406C740.529 727.902 753.406 719.954 765.897 711.536C769.932 708.817 777.955 704.08 781.339 701.205C782.749 701.551 785.752 699.456 787.127 698.654C791.348 696.505 797.762 693.471 801.581 690.974C796.176 692.874 791.239 695.13 786.014 697.451C784.007 698.324 781.926 699.044 780.275 700.431C763.694 707.179 740.154 723.146 726.082 733.946C723.05 735.705 718.651 739.327 715.74 741.6C717.071 743 717.028 743.514 718.95 742.808ZM775.766 815.226C770.517 813.351 762.26 812.294 756.633 811.853C747.918 807.415 660.282 795.784 649.166 796.769C661.17 800.7 746.864 814.395 755.875 812.741C760.937 814.018 770.307 814.707 775.766 815.226ZM847.467 563.876C847.656 560.983 847.395 558.264 847.193 555.381C845.963 540.641 842.239 521.394 839.348 507.051C836.049 490.682 832.613 472.628 828.362 456.562C827.872 454.212 827.287 449.716 825.462 448.32C823.968 450.279 825.351 456.006 825.655 458.545C830.695 486.459 836.416 514.246 842.812 541.881C844.107 547.66 844.936 553.729 846.277 559.382L847.123 563.968C847.146 566.038 847.676 573.223 848.515 574.694C848.992 571.816 848.965 566.396 847.467 563.876ZM541.999 824.415C544.738 828.301 625.184 879.172 628.462 879.546C622.571 870.911 550.406 824.9 541.999 824.415ZM441.078 187.617L439.966 189.891C466.742 204.73 496.232 226.939 520.335 246.398C518.126 243.062 510.451 236.114 507.275 233.226C487.969 215.67 465.101 198.16 441.078 187.617Z"/><path fill="#FDFDFD" fill-opacity="0.51372552" d="M772.78 207.908C775.815 207.381 780.781 207.489 784.035 207.467L784.47 208.62C783.17 208.732 781.412 208.959 780.157 208.888L780.538 208.424C779.292 207.696 775.468 208.047 773.785 208.088L772.78 207.908Z"/><path fill="#FDFDFD" fill-opacity="0.29803923" d="M773.785 208.088C775.468 208.047 779.292 207.696 780.538 208.424L780.157 208.888L772.757 209.477C773.766 208.848 773.402 209.295 773.785 208.088Z"/><path fill="#CCCCCC" d="M290.428 207.613C299.946 209.481 302.715 212.147 312.138 210.86C309.837 212.674 308.201 211.652 305.108 212.432L305.722 213.948L305.3 214.694C303.133 213.295 302.708 213.168 300.189 212.68L295.618 211.769C293.474 208.958 291.359 209.395 287.598 208.616C288.5 207.738 288.948 207.919 290.428 207.613Z"/><path fill="#FDFDFD" d="M670.743 216.703L670.748 216.427C672.796 215.406 679.435 213.942 681.515 214.824C682.884 215.267 684.516 215.841 685.875 216.225L685.483 217.035C682.917 217.748 675.819 217.534 672.763 217.562L670.743 216.703Z"/><path fill="#FDFDFD" d="M547.223 176.351C550.756 175.472 556.269 173.758 559.3 175.372L556.887 178.33C555.798 178.557 548.861 176.748 547.223 176.351Z"/><path fill="#FDFDFD" d="M279.443 203.547C281.532 201.811 284.684 198.743 287.235 198.406L287.851 200.196C286.187 201.174 281.138 203.792 279.361 203.776L279.443 203.547Z"/><path fill="#D5D5D4" d="M784.035 207.467C789.676 206.639 792.308 207.021 798.036 207.765C793.295 208.182 789.248 208.482 784.47 208.62L784.035 207.467Z"/><path fill="#FDFDFD" d="M718.95 742.808C714.588 746.285 709.551 749.856 705.026 753.2C704.269 752.762 703.763 752.575 702.944 752.292C703.733 750.991 713.71 743.235 715.74 741.6C717.071 743 717.028 743.514 718.95 742.808Z"/><path fill="#FDFDFD" fill-opacity="0.52156866" d="M715.74 741.6C718.651 739.327 723.05 735.705 726.082 733.946C726.705 735.421 726.832 735.279 728.084 736.406C726.322 738.129 721.211 741.428 718.95 742.808C717.028 743.514 717.071 743 715.74 741.6Z"/><path fill="#D5D5D4" d="M633.836 882.305C639.653 885.289 650.732 892.544 656.736 896.175L656.28 896.48C652.504 894.982 635.815 885.778 633.204 883.136L633.836 882.305Z"/><path fill="#D5D5D4" d="M573.235 89.1337L573.384 89.1654L573.59 89.5272C569.047 91.794 555.861 96.534 550.613 98.6352C550.09 98.404 550.42 98.5883 549.75 97.9005C551.396 96.1589 569.667 90.3468 573.235 89.1337Z"/><path fill="#FDFDFD" d="M104.355 529.292C106.955 524.471 109.938 517.8 112.902 513.529C115.152 517.124 106.665 525.934 104.953 529.99L104.355 529.292Z"/><path fill="#FDFDFD" fill-opacity="0.25490198" d="M825.655 458.545C825.351 456.006 823.968 450.279 825.462 448.32C827.287 449.716 827.872 454.212 828.362 456.562L826.259 456.9L825.655 458.545Z"/><path fill="#D5D5D4" d="M693.375 139.203C694.951 139.019 696.288 139.239 697.887 139.37C693.029 140.196 688.191 141.137 683.377 142.191C681.644 142.589 680.538 142.762 678.771 142.992L678.329 142.253C679.95 140.802 690.63 139.563 693.375 139.203Z"/><path fill="#FDFDFD" fill-opacity="0.047058824" d="M756.633 811.853C762.26 812.294 770.517 813.351 775.766 815.226C770.307 814.707 760.937 814.018 755.875 812.741L756.633 811.853Z"/><path fill="#D5D5D4" d="M493.12 911.995C491.402 910.121 484.054 901.432 483.944 899.376C486.476 900.611 491.832 908.67 493.746 911.324L493.12 911.995Z"/><path fill="#D5D5D4" d="M519.577 244.877C521.874 245.989 530.846 254.474 532.566 256.647C530.403 255.518 527.39 252.982 525.504 251.364C523.238 249.418 520.068 247.801 519.577 244.877Z"/><path fill="#D5D5D4" fill-opacity="0.95686275" d="M801.581 690.974C797.762 693.471 791.348 696.505 787.127 698.654L786.014 697.451C791.239 695.13 796.176 692.874 801.581 690.974Z"/><path fill="#FDFDFD" d="M433.381 184.831C435.768 185.505 439.04 186.342 441.078 187.617L439.966 189.891L439.458 189.911C437.194 188.709 435.276 186.629 433.381 184.831Z"/><path fill="#FDFDFD" fill-opacity="0.77254903" d="M780.275 700.431C781.926 699.044 784.007 698.324 786.014 697.451L787.127 698.654C785.752 699.456 782.749 701.551 781.339 701.205L780.275 700.431Z"/><path fill="#D5D5D4" fill-opacity="0.81568629" d="M847.123 563.968L847.467 563.876C848.965 566.396 848.992 571.816 848.515 574.694C847.676 573.223 847.146 566.038 847.123 563.968Z"/><path fill="#91928A" d="M104.953 529.99C104.292 531.509 103.179 533.847 101.806 534.753C101.963 532.821 103.324 531.011 104.355 529.292L104.953 529.99Z"/><path fill="#FDFDFD" fill-opacity="0.082352944" d="M847.193 555.381C847.395 558.264 847.656 560.983 847.467 563.876L847.123 563.968L846.277 559.382C846.977 557.924 846.946 557.021 847.193 555.381Z"/><path fill="#91928A" d="M493.746 911.324C495.285 912.771 495.933 913.128 496.596 915.042L496.131 915.238C494.476 913.92 494.371 913.741 493.12 911.995L493.746 911.324Z"/><path fill="#FFFFFF" d="M285.542 721.95L285.918 720.165L286.546 719.869C287.546 721.268 287.701 721.613 288.435 723.105L289.355 721.415C292.847 725.902 296.88 732.676 299.991 737.338C320.433 767.968 326.506 799.978 322.131 836.299C319.683 856.621 318.14 870.273 321.994 890.96C317.354 878.897 307.791 859.747 302.253 846.99C282.22 800.842 280.657 771.082 285.059 722.057L285.542 721.95ZM308.966 836.999C309.633 839.875 310.258 842.79 311.145 845.603L310.57 837C310.475 830.13 308.46 813.37 307.959 806.766C307.219 797.014 296.48 735.031 290.596 730.76C288.703 734.3 292.523 743.355 293.362 747.095C300.017 776.77 304.033 806.987 308.966 836.999Z"/><path fill="#FDFDFD" d="M285.542 721.95L285.918 720.165L286.546 719.869C287.546 721.268 287.701 721.613 288.435 723.105C289.693 725.682 291.992 729.108 289.106 731.318C288.1 730.223 286.22 723.876 285.542 721.95Z"/><path fill="#FDFDFD" fill-opacity="0.023529412" d="M308.966 836.999L310.57 837L311.145 845.603C310.258 842.79 309.633 839.875 308.966 836.999Z"/><path fill="#FFFFFF" d="M810.896 371.005C810.38 370.374 809.873 369.669 809.381 369.013L809.851 368.689L811.939 369.581L814.205 369.18C824.271 373.049 833.055 376.289 842.556 381.385C871.876 397.109 893.302 421.947 908.629 451.095C914.624 462.496 921.411 477.596 930.227 486.764C927.124 484.435 924.244 482.165 921.288 479.659C919.243 477.925 916.571 475.439 914.359 474.03C884.675 455.129 853.883 438.66 832.753 409.391C826.742 401.057 821.221 391.42 816.012 382.512C813.761 378.757 812.166 374.759 809.696 371.001L810.896 371.005ZM891.423 446.727L892.097 446.969C891.153 441.915 826.132 377.773 820.045 377.024L819.543 378.261C822.43 382.856 853.607 410.983 859.585 416.997C867.716 425.177 882.56 439.698 891.423 446.727Z"/><path fill="#FDFDFD" d="M810.896 371.005C810.38 370.374 809.873 369.669 809.381 369.013L809.851 368.689L811.939 369.581C814.206 371.062 819.454 374.208 820.635 376.445L820.045 377.024C816.235 378.012 813.461 373.716 810.896 371.005Z"/><path fill="#91928A" d="M908.294 462.989C905.622 460.634 891.946 448.974 891.423 446.727L892.097 446.969C895.036 447.077 906.292 460.129 908.294 462.989Z"/><path fill="#FFFFFF" d="M206.624 625.398C207.74 627.218 207.594 628.451 207.752 630.665L208.841 630.836C225.698 671.817 225.162 704.569 207.787 745.717C201.724 760.074 196.176 770.846 195.082 786.539C188.699 765.132 183.455 725.71 184.691 703.782C185.383 691.335 187.583 679.018 191.245 667.102C193.456 659.932 196.24 652.947 199.01 645.98C201.374 640.035 204.332 634.247 205.775 627.984L206.624 625.398ZM197.952 729.849C197.527 732.897 197.417 737.724 196.795 740.2C196.001 745.999 195.32 754.517 195.216 760.292L195.676 760.097L195.424 761.342L195.276 761.007C196.121 759.511 197.733 745.545 197.335 743.884C197.978 740.672 198.344 737.661 198.761 734.416C203.434 709.581 209.699 668.177 208.2 642.896C207.175 641.136 207.4 640.856 205.897 640.045C204.14 655.402 203.871 671.701 202.349 687.474C201.455 696.329 200.487 705.175 199.445 714.013C198.95 718.393 197.978 725.581 197.952 729.849Z"/><path fill="#91928A" fill-opacity="0.98431373" d="M197.335 743.884C197.733 745.545 196.121 759.511 195.276 761.007L195.424 761.342L195.676 760.097L195.216 760.292C195.32 754.517 196.001 745.999 196.795 740.2L197.335 743.884Z"/><path fill="#FDFDFD" fill-opacity="0.06666667" d="M197.952 729.849C198.045 731.43 197.918 733.188 198.761 734.416C198.344 737.661 197.978 740.672 197.335 743.884L196.795 740.2C197.417 737.724 197.527 732.897 197.952 729.849Z"/><path fill="#FDFDFD" d="M206.624 625.398C207.74 627.218 207.594 628.451 207.752 630.665C208.194 634.017 209.024 639.594 208.2 642.896C207.175 641.136 207.4 640.856 205.897 640.045C205.197 638.62 205.819 630.58 205.775 627.984L206.624 625.398Z"/><path fill="#FFFFFF" d="M304.646 177.468C312.664 162.738 319.702 149.249 330.144 136.014C353.466 106.455 387.909 92.7548 422.986 82.7977C425.207 82.1671 427.824 81.2834 430.094 81.5764C429.101 82.39 429.418 82.0217 428.177 82.5421C412.944 88.9291 403.485 103.543 394.058 116.271C389.658 122.212 384.472 128.656 379.72 134.217C370.649 144.831 360.623 153.986 348.94 161.695C340.01 167.509 330.349 172.114 320.209 175.389C316.085 176.731 309.562 178.457 305.861 179.882C304.893 178.79 304.829 178.887 304.646 177.468ZM307.129 177.961C318.635 173.786 357.576 134.581 368.433 124.483C369.965 123.058 386.52 107.192 387.171 106.237L386.827 105.984C358.144 126.55 334.919 149.988 309.161 173.89C308.005 174.963 307.113 176.198 306.85 177.741L307.129 177.961Z"/><path fill="#91928A" d="M411.965 88.0242L412.226 88.3347C411.759 89.6324 401.166 96.5588 399.199 97.9139L398.741 97.328C400.186 95.2057 409.298 89.7299 411.965 88.0242Z"/><path fill="#FFFFFF" d="M751.661 274.598C761.537 274.245 771.139 273.525 780.988 274.023C810.581 275.519 836.393 286.638 859.704 304.458C869.8 312.177 879.258 320.737 889.916 327.64C874.9 324.697 860.484 324.273 845.515 322.24C820.311 318.706 796.055 310.224 774.141 297.281C765.785 292.255 757.49 286.157 749.51 280.502C745.227 278.499 735.157 273.926 731.07 277.153C729.644 276.442 728.436 275.74 727.914 274.345L728.844 273.738C736.858 274.881 743.638 274.712 751.661 274.598ZM758.078 282.614C765.779 284.496 774.102 287.521 781.863 289.883C796.81 294.37 811.721 298.976 826.595 303.701C834.274 306.209 846.445 311.374 853.842 312.59C849.769 309.703 840.961 306.376 836.096 304.39C810.947 294.118 785.109 286.483 758.78 279.86L758.078 282.614ZM871.879 319.627C869.252 318.359 864.511 315.985 861.826 315.374C859.635 314.326 858.367 313.5 855.944 313.355C856.465 314.428 858.767 315.08 860.032 315.544C863.808 317.364 867.784 318.734 871.879 319.627Z"/><path fill="#FFFFFF" d="M728.844 273.738C736.858 274.881 743.638 274.712 751.661 274.598C747.747 276.744 746.37 274.665 744.181 276.322C745.114 277.805 748.317 279.042 750.066 279.894L749.51 280.502C745.227 278.499 735.157 273.926 731.07 277.153C729.644 276.442 728.436 275.74 727.914 274.345L728.844 273.738Z"/><path fill="#FDFDFD" d="M744.181 276.322C748.632 277.052 754.601 278.138 758.78 279.86L758.078 282.614C756.731 282.989 751.574 280.545 750.066 279.894C748.317 279.042 745.114 277.805 744.181 276.322Z"/><path fill="#D5D5D4" fill-opacity="0.98823529" d="M861.826 315.374C864.511 315.985 869.252 318.359 871.879 319.627C867.784 318.734 863.808 317.364 860.032 315.544L861.826 315.374Z"/><path fill="#FDFDFD" fill-opacity="0.23529412" d="M860.032 315.544C858.767 315.08 856.465 314.428 855.944 313.355C858.367 313.5 859.635 314.326 861.826 315.374L860.032 315.544Z"/><path fill="#FFFFFF" d="M641.881 707.426C630.914 716.613 621.927 729.847 612.754 740.928C595.893 761.299 571.888 779.818 545.754 785.885C536.475 787.928 527.519 787.19 518.698 788.193L518.821 787.207L516.68 787.397L515.32 786.431C530.927 767.924 554.411 745.472 575.168 733.409C594.985 721.891 620.462 715.552 641.881 707.426ZM621.731 720.673C623.115 719.723 625.589 718.421 626.15 717.122C624.294 717.538 623.054 718.658 621.502 719.786C616.244 722.448 611.32 726.183 606.255 729.19C586.242 741.071 567.735 755.075 549.068 768.92C544.824 772.068 526.7 780.941 524.995 783.605C528.898 782.577 533.652 780.097 537.377 778.343C559.799 767.784 578.845 752.422 598.337 737.4C605.827 731.628 614.139 726.382 621.731 720.673Z"/><path fill="#FDFDFD" fill-opacity="0.074509807" d="M621.502 719.786C623.054 718.658 624.294 717.538 626.15 717.122C625.589 718.421 623.115 719.723 621.731 720.673L621.502 719.786Z"/><path fill="#D5D5D4" d="M516.68 787.397C519.605 785.515 520.976 784.667 524.128 783.217L524.995 783.605C524.113 784.918 520.543 786.341 518.821 787.207L516.68 787.397Z"/><path fill="#FFFFFF" d="M207.481 378.686L209.789 379.896C255.658 427.355 254.825 449.305 260.16 511.374C254.413 503.555 247.508 496.092 241.453 488.43C222.87 464.912 208.793 442.492 206.935 411.571C206.233 399.903 207.902 390.438 207.52 379.661L207.481 378.686ZM211.072 392.457C210.171 397.404 243.599 476.443 247.709 480.339C247.296 482.668 250.809 489.101 251.934 491.353C251.654 488.518 249.62 482.557 247.709 480.339C247.832 476.186 216.956 398.869 212.716 390.417L211.072 392.457Z"/><path fill="#FDFDFD" d="M211.072 392.457C208.984 390.81 208.249 384.097 209.062 381.463L209.712 381.257C211.045 382.986 212.237 388.197 212.716 390.417L211.072 392.457Z"/><path fill="#D5D5D4" fill-opacity="0.98039216" d="M247.709 480.339C249.62 482.557 251.654 488.518 251.934 491.353C250.809 489.101 247.296 482.668 247.709 480.339Z"/><path fill="#FFFFFF" d="M174.151 534.082C173.625 536.335 171.888 539.785 173.1 541.431L171.591 543.62C162.717 572.312 150.681 601.256 139.765 629.451L140.768 631.029C142.396 629.386 146.136 620.806 147.336 618.318C156.761 598.772 170.029 568.416 173.39 547.177C173.902 544.973 174.469 543.389 175.205 541.282C175.883 550.201 177.075 559.825 176.977 568.58C176.619 600.405 162.649 624.513 144.007 648.936C134.373 661.558 128.161 671.411 122.14 686.298C124.274 644.463 124.629 605.08 148.721 568.455C156.519 556.601 167.503 545.358 174.151 534.082Z"/><path fill="#D5D5D4" d="M139.765 629.451L140.768 631.029C140.987 632.068 132.26 652.021 131.136 655.128C131.955 649.62 136.886 634.173 139.765 629.451Z"/><path fill="#FFFFFF" d="M765.699 348.502C765.719 350.235 765.487 351.965 766.377 353.342C768.222 352.626 767.531 351.186 768.342 349.558C787.534 387.261 784.738 424.044 769.242 462.129C764.531 473.708 759.351 484.808 755.108 496.595C755.855 481.465 754.296 468.609 752.018 453.736C747.763 425.955 744.844 400.118 754.87 372.977C758.102 364.225 761.779 356.958 765.699 348.502ZM762.022 451.117C761.745 453.473 760.976 457.942 761.536 460.062L761.687 459.74L761.336 459.388L761.948 458.84C762.363 456.392 762.704 453.932 762.971 451.463C762.931 445.208 765.343 430.168 765.788 423.87C766.432 414.767 770.124 360.472 766.312 355.459C765.185 359.106 764.358 375.34 764.114 379.848C762.725 403.579 762.028 427.346 762.022 451.117Z"/><path fill="#FDFDFD" fill-opacity="0.25882354" d="M762.022 451.117L762.971 451.463C762.704 453.932 762.363 456.392 761.948 458.84L761.336 459.388L761.687 459.74L761.536 460.062C760.976 457.942 761.745 453.473 762.022 451.117Z"/><path fill="#FFFFFF" d="M208.883 519.714L209.487 520.032C213.79 522.265 219.626 524.307 224.227 526.15C231.814 529.205 239.299 532.51 246.668 536.059C273.316 549.175 286.695 565.25 304.442 588.423C309.372 594.861 314.821 601.426 319.853 608.108C309.872 604.801 299.675 600.344 289.929 596.57C259.103 584.635 230.385 570.782 214.951 539.451C212.247 533.962 209.073 527.633 206.755 521.952L206.244 521.135C206.236 520.044 206.077 520.54 206.731 519.65L208.49 520.25L208.883 519.714ZM220.959 536.281C232.751 549.32 254.392 563.42 269.089 573.284C273.826 576.462 282.507 582.291 287.391 584.522C284.033 581.19 277.589 576.334 273.725 573.315C264.165 565.875 254.531 558.532 244.823 551.286C241.249 548.565 219.663 531.005 217.237 531.699C218.575 533.888 219.145 534.431 220.959 536.281Z"/><defs><linearGradient id="gradient_0" gradientUnits="userSpaceOnUse" x1="249.68327" y1="559.10846" x2="251.68451" y2="556.41522"><stop offset="0" stop-color="white" stop-opacity="0"/><stop offset="1" stop-color="white" stop-opacity="0.031372551"/></linearGradient></defs><path fill="url(#gradient_0)" d="M217.237 531.699C219.663 531.005 241.249 548.565 244.823 551.286C254.531 558.532 264.165 565.875 273.725 573.315C277.589 576.334 284.033 581.19 287.391 584.522C282.507 582.291 273.826 576.462 269.089 573.284C254.392 563.42 232.751 549.32 220.959 536.281C219.145 534.431 218.575 533.888 217.237 531.699Z"/><path fill="#FDFDFD" d="M206.244 521.135C206.236 520.044 206.077 520.54 206.731 519.65L208.49 520.25C209.759 521.984 217.298 529.346 217.262 529.992L216.715 530.641L217.237 531.699C218.575 533.888 219.145 534.431 220.959 536.281C217.549 535.37 209.123 525.112 206.755 521.952L206.244 521.135Z"/><path fill="#FFFFFF" d="M312.138 210.86C332.947 204.664 362.076 208.942 380.843 219.441C401.924 231.235 420.366 249.996 438.956 265.676C427.023 260.817 411.396 258.701 398.685 255.988C373.037 250.514 348.647 243.875 326.319 229.537C319.358 225.068 312.057 219.579 305.3 214.694L305.722 213.948L305.108 212.432C308.201 211.652 309.837 212.674 312.138 210.86ZM405.004 247.406C394.929 239.382 340.596 216.373 327.476 215.894C326.435 215.856 325.685 215.859 324.894 216.578L325.194 217.542C327.74 220.33 347.209 225.541 352.33 227.315C369.533 233.271 386.625 240.108 403.311 247.366L405.004 247.406Z"/><path fill="#FDFDFD" d="M305.108 212.432C305.92 212.469 323.437 214.95 323.351 214.91L322.43 216.417L323.744 217.916C322.14 219.111 308.21 214.744 305.722 213.948L305.108 212.432Z"/><path fill="#D5D5D4" d="M405.004 247.406C407.446 247.194 416.821 252.962 418.992 254.694C415.341 253.079 406.414 249.359 403.311 247.366L405.004 247.406Z"/><path fill="#FFFFFF" d="M562.021 199.009L561.347 197.16L561.725 196.801C562.693 197.5 563.666 198.191 564.645 198.876L566.032 198.084C593.488 212.353 610.23 229.957 619.456 259.995C625.207 278.723 626.233 299.216 629.987 318.143C622.812 304.83 612.609 293.41 602.962 281.693C588.794 264.483 576.934 247.929 569.27 226.606C565.92 217.286 564.087 208.896 561.303 199.622L562.021 199.009ZM564.08 201.774C565.107 203.941 572.092 213.305 573.969 215.834C579.858 223.769 585.082 231.107 590.36 239.508C595.895 248.353 601.162 257.364 606.153 266.528C608.916 271.669 614.126 282.541 617.253 286.69C615.568 281.586 612.294 274.79 610.095 269.754C598.677 243.603 584.847 221.197 565.466 200.242L564.08 201.774Z"/><defs><linearGradient id="gradient_1" gradientUnits="userSpaceOnUse" x1="594.47351" y1="240.52901" x2="589.04327" y2="244.13261"><stop offset="0" stop-color="white" stop-opacity="0"/><stop offset="1" stop-color="#FCFBFB" stop-opacity="0.035294119"/></linearGradient></defs><path fill="url(#gradient_1)" d="M565.466 200.242C584.847 221.197 598.677 243.603 610.095 269.754C612.294 274.79 615.568 281.586 617.253 286.69C614.126 282.541 608.916 271.669 606.153 266.528C601.162 257.364 595.895 248.353 590.36 239.508C585.082 231.107 579.858 223.769 573.969 215.834C572.092 213.305 565.107 203.941 564.08 201.774L565.466 200.242Z"/><path fill="#FDFDFD" d="M562.021 199.009L561.347 197.16L561.725 196.801C562.693 197.5 563.666 198.191 564.645 198.876L565.466 200.242L564.08 201.774C562.991 201.311 562.769 200.315 562.021 199.009Z"/><path fill="#FFFFFF" d="M350.319 737.968C364.478 734.435 370.83 727.396 382.935 720.782C413.538 704.06 448.986 703.6 482.935 707.368C449.173 728.759 418.65 746.361 376.981 744.26C373.145 744.067 359.078 743.917 356.01 742.638C350.434 742.161 340.867 739.723 335.943 741.138C334.621 741.348 329.908 739.097 329.442 737.085L331.261 736.269C334.068 737.155 344.083 740.648 346.355 739.648C347.526 738.938 349.019 738.457 350.319 737.968ZM357.459 737.609C358.803 738.392 360.44 739.242 361.586 740.222C365.073 740.03 370.855 739.059 373.981 738.286C382.557 736.166 439.447 720.516 444.079 717.202C446.167 717.859 467.256 711.731 470.427 710.523C464.72 711.361 448.444 714.53 443.338 716.792C428.132 720.044 411.733 725.08 396.634 729.089C383.686 732.414 370.619 735.256 357.459 737.609Z"/><path fill="#D5D5D4" fill-opacity="0.98823529" d="M443.338 716.792C448.444 714.53 464.72 711.361 470.427 710.523C467.256 711.731 446.167 717.859 444.079 717.202L443.338 716.792Z"/><path fill="#CCCCCC" d="M331.261 736.269C334.068 737.155 344.083 740.648 346.355 739.648C349.526 740.997 353.813 740.69 357.309 740.631C356.034 740.942 354.986 741.397 353.826 741.139L353.517 741.412L352.246 741.342C353.952 741.045 354.73 741.378 356.01 742.638C350.434 742.161 340.867 739.723 335.943 741.138C334.621 741.348 329.908 739.097 329.442 737.085L331.261 736.269Z"/><path fill="#FDFDFD" d="M350.319 737.968C352.807 737.75 354.956 737.485 357.459 737.609C358.803 738.392 360.44 739.242 361.586 740.222C360.097 740.409 358.819 740.592 357.309 740.631C353.813 740.69 349.526 740.997 346.355 739.648C347.526 738.938 349.019 738.457 350.319 737.968Z"/><path fill="#FFFFFF" d="M677.505 257.333L678.671 257.032L679.842 258.106L681.014 257.037C683.269 261.175 690.21 270.016 693.363 274.79C707.015 295.461 708.612 321.155 705.167 345.047C703.481 356.732 698.671 374.47 695.976 386.681C691.931 374.863 688.145 362.958 684.622 350.974C674.543 317.8 668.247 292.214 677.505 257.333ZM679.889 266.812C683.938 286.458 687.691 306.163 691.148 325.922C692.458 333.764 692.799 341.386 694.334 349.326L694.765 350.052C697.416 334.441 687.383 279.248 681.733 263.647L679.889 266.812Z"/><path fill="#FDFDFD" d="M678.671 257.032L679.842 258.106C680.338 259.542 681.385 262.287 681.733 263.647L679.889 266.812C678.709 263.154 678.22 260.85 678.671 257.032Z"/><path fill="#91928A" d="M694.334 349.326L694.765 350.052C695.662 353.58 694.951 361.216 694.679 365.129L694.403 365.083C693.981 361.568 693.555 352.682 694.334 349.326Z"/><path fill="#FFFFFF" d="M228.827 623.689L228.814 622.901L230.026 622.667C237.994 628.599 246.39 636.182 255.949 637.871C271.54 638.967 284.708 636.181 300.091 636.002C331.438 635.637 356.851 650.26 384.626 662.372L383.678 662.38C372.893 662.518 357.324 664.924 346.263 666.393C321.989 669.615 298.409 668.255 276.465 656.355C268.875 652.239 260.137 645.659 253.021 640.498C247.782 637.638 238.187 630.327 233.458 628.382L232.325 629.707C231.381 628.392 229.699 625.22 228.827 623.689ZM338.086 655.724C340.727 656.04 354.814 657.559 356.611 657.238C354.654 656.025 344.254 654.674 341.398 654.698C324.385 651.707 306.312 650.836 289.198 647.655C287.964 647.426 286.221 647.476 285.064 648.028C285.628 649.381 287.051 649.945 288.381 650.459C296.16 653.462 327.784 655.044 338.086 655.724Z"/><path fill="#FDFDFD" d="M253.32 639.927L252.454 638.985L252.584 638.563L255.104 638.846C260.234 640.196 269.469 642.505 274.187 644.374L273.451 645.821C275.408 649.022 281.439 646.191 283.748 647.411L284.256 649.597C277.929 650.961 259.179 642.099 253.32 639.927Z"/><path fill="#FFFFFF" d="M228.827 623.689L228.814 622.901L230.026 622.667C237.994 628.599 246.39 636.182 255.949 637.871L255.104 638.846L252.584 638.563L252.454 638.985L253.32 639.927L253.021 640.498C247.782 637.638 238.187 630.327 233.458 628.382L232.325 629.707C231.381 628.392 229.699 625.22 228.827 623.689Z"/><path fill="#FDFDFD" d="M228.827 623.689C230.572 623.988 233.279 626.763 234.279 628.199L233.458 628.382L232.325 629.707C231.381 628.392 229.699 625.22 228.827 623.689Z"/><path fill="#FDFDFD" fill-opacity="0.0078431377" d="M338.086 655.724C327.784 655.044 296.16 653.462 288.381 650.459C287.051 649.945 285.628 649.381 285.064 648.028C286.221 647.476 287.964 647.426 289.198 647.655C306.312 650.836 324.385 651.707 341.398 654.698L341.006 655.391C339.913 655.54 339.183 655.651 338.086 655.724Z"/><path fill="#FDFDFD" fill-opacity="0.58823532" d="M341.398 654.698C344.254 654.674 354.654 656.025 356.611 657.238C354.814 657.559 340.727 656.04 338.086 655.724C339.183 655.651 339.913 655.54 341.006 655.391L341.398 654.698Z"/><path fill="#CCCCCC" d="M180.728 504.45C185.529 506.601 183.139 507.844 183.983 512.594C182.498 513.262 181.856 513.238 181.224 514.794C179.217 519.732 176.843 536.687 174.809 540.446L173.1 541.431C171.888 539.785 173.625 536.335 174.151 534.082C175.777 531.691 179.943 508.39 180.728 504.45Z"/><path fill="#FFFFFF" fill-opacity="0.98039216" d="M304.646 177.468C304.829 178.887 304.893 178.79 305.861 179.882C303.05 180.92 290.565 194.841 288.057 197.802C287.769 199.011 287.735 198.973 287.851 200.196L287.235 198.406C284.684 198.743 281.532 201.811 279.443 203.547L279.371 201.147C289.96 192.955 296.092 187.977 304.646 177.468Z"/><path fill="#FFFFFF" fill-opacity="0.96470588" d="M206.206 594.751C208.467 595.774 209.464 598.798 209.827 601.216C208.579 601.916 208.48 601.774 208.113 603.159C209.114 611.297 207.574 623.679 208.841 630.836L207.752 630.665C207.594 628.451 207.74 627.218 206.624 625.398C207.799 622.081 206.332 600.01 206.206 594.751Z"/><path fill="#CCCCCC" fill-opacity="0.96470588" d="M191.475 497.898C197.593 505.382 201.739 512.187 208.883 519.714L208.49 520.25L206.731 519.65C206.077 520.54 206.236 520.044 206.244 521.135C200.989 512.162 195.741 506.61 190.066 498.559L191.475 497.898Z"/><path fill="#FFFFFF" fill-opacity="0.98039216" d="M764.098 320.071C765.524 326.077 766.605 330.607 767.3 336.763C767.568 339.141 767.907 347.941 768.342 349.558C767.531 351.186 768.222 352.626 766.377 353.342C765.487 351.965 765.719 350.235 765.699 348.502C767.828 341.221 765.457 329.745 763.593 322.648L764.098 320.071Z"/><path fill="#CCCCCC" fill-opacity="0.98039216" d="M547.816 182.949L547.917 180.95L548.51 180.761L550.577 182.57C552.937 186.349 562.414 195.543 566.032 198.084L564.645 198.876C563.666 198.191 562.693 197.5 561.725 196.801L561.347 197.16L562.021 199.009L561.303 199.622C558.163 191.131 554.088 189.463 547.816 182.949Z"/><path fill="#FDFDFD" fill-opacity="0.031372551" d="M677.867 770.098C683.816 765.999 695.985 757.835 702.355 753.043C702.649 753.088 702.943 753.133 703.238 753.178C702.26 756.648 683.088 767.503 678.773 771.317L677.867 770.098Z"/><path fill="#FFFFFF" fill-opacity="0.98431373" d="M203.564 353.913C205.032 361.842 206.383 373.081 209.789 379.896L207.481 378.686C207.313 376.342 203.232 362.734 202.296 359.599C203.463 356.963 202.695 356.368 203.564 353.913Z"/><path fill="#FFFFFF" d="M673.827 235.558C674.578 239.464 679.08 253.844 681.014 257.037L679.842 258.106L678.671 257.032L677.505 257.333C677.837 252.472 674.16 241.998 672.629 236.819L673.827 235.558Z"/><path fill="#FFFFFF" fill-opacity="0.95686275" d="M490.954 798.198C494.018 795.663 510.065 789.422 515.32 786.431L516.68 787.397L518.821 787.207L518.698 788.193C511.001 788.882 501.677 794.618 493.913 797.303C493.054 797.555 491.75 797.889 490.954 798.198Z"/><path fill="#FFFFFF" d="M282.136 708.958C283.088 707.059 282.39 707.556 283.924 706.935C284.738 707.858 284.668 707.528 284.992 708.591C284.166 713.54 286.777 717.352 289.355 721.415L288.435 723.105C287.701 721.613 287.546 721.268 286.546 719.869L285.918 720.165L285.542 721.95L285.059 722.057C285.043 717.296 283.571 713.458 282.136 708.958Z"/><path fill="#FFFFFF" fill-opacity="0.96078432" d="M796.82 361.404C803.828 363.179 807.972 366.29 814.205 369.18L811.939 369.581L809.851 368.689L809.381 369.013C809.873 369.669 810.38 370.374 810.896 371.005L809.696 371.001C805.048 365.058 802.453 364.038 795.248 362.258C795.401 362.122 796.597 361.52 796.82 361.404Z"/><path fill="#FDFDFD" fill-opacity="0.48235294" d="M402.433 796.905C403.089 795.598 403.048 795.46 403.46 794.03C405.063 795.691 408.874 798.5 409.616 799.506C408.477 800.681 408.258 800.738 407.697 802.301C407.496 802.363 407.296 802.424 407.095 802.485C405.43 800.629 403.841 798.968 402.433 796.905Z"/><path fill="#FDFDFD" fill-opacity="0.10980392" d="M173.1 541.431L174.809 540.446L175.205 541.282C174.469 543.389 173.902 544.973 173.39 547.177C172.158 545.678 172.148 545.411 171.591 543.62L173.1 541.431Z"/></svg>